<svg xmlns="http://www.w3.org/2000/svg" viewBox="0 0 93.28 141.72"><defs><style>.cls-1{fill:#a9d8cf;stroke:#a9d8cf;stroke-width:2px;}.cls-1,.cls-2{stroke-miterlimit:10;}.cls-2{fill:#007473;stroke:#007473;stroke-width:3px;}</style></defs><g id="Capa_2" data-name="Capa 2"><g id="Capa_1-2" data-name="Capa 1"><path class="cls-1" d="M92.24,45.22a46.35,46.35,0,0,1-5.17,23.29l-.84,1.55,0,.06L48.42,139.66a2,2,0,0,1-3.56,0Q32.47,116.86,20.07,94.09C12.17,79.5,1,64.38,1,47.1,1,20.94,22.57-.13,48.73,1.05,72.25,2.11,91.3,21.45,92.24,45.22Z"/><path class="cls-2" d="M49.24,44.54l-1.1-.31c-6.3-1.84-9-3.26-9-6,0-2.21,2.37-4.74,8.65-4.74a27.38,27.38,0,0,1,9.7,1.65l.57.22,1-1.7,1.09-1.94a25.94,25.94,0,0,0-4.35-1.27,36.2,36.2,0,0,0-6.25-.65V24.48H44.43v5.57c-7.5.82-12.31,4.29-12.31,8.87s4.57,7,12.07,9.15l1.39.38c6,1.65,9.21,3.52,9.21,6.56s-3.91,5.39-9.7,5.39a30,30,0,0,1-11.36-2.19L33.34,58l-.6,1.13-1.36,2.56a32.64,32.64,0,0,0,12.48,2.42v5.56H49V64c8.4-.94,12.89-5,12.89-9.37C61.89,49.71,57.65,46.85,49.24,44.54Z"/></g></g></svg>