<svg xmlns="http://www.w3.org/2000/svg" viewBox="0 0 388.7 141.72"><defs><style>.cls-1,.cls-3{fill:#058c7f;}.cls-2,.cls-4{fill:#007473;}.cls-3{stroke:#058c7f;stroke-width:2px;}.cls-3,.cls-4{stroke-miterlimit:10;}.cls-4{stroke:#007473;stroke-width:3px;}</style></defs><g id="Capa_2" data-name="Capa 2"><g id="Capa_1-2" data-name="Capa 1"><path class="cls-1" d="M131.5,107.33a1.81,1.81,0,0,1-1.14,1.67,23.69,23.69,0,0,1-9.1,1.57q-7.91,0-12.66-4.9t-4.75-12.88q0-8.58,5.35-13.86a18.48,18.48,0,0,1,13.56-5.28,24.63,24.63,0,0,1,7.49,1,1.81,1.81,0,0,1,1.25,1.72v.45a1.78,1.78,0,0,1-2.38,1.69,18.8,18.8,0,0,0-6.41-1.08,13.75,13.75,0,0,0-10.35,4.11q-4,4.11-4,11,0,6.52,3.7,10.4a12.88,12.88,0,0,0,9.73,3.87,20.16,20.16,0,0,0,7.23-1.23,1.79,1.79,0,0,1,2.44,1.67Z"/><path class="cls-1" d="M169.31,110h-.94a1.81,1.81,0,0,1-1.67-1.14l-3-7.74A1.79,1.79,0,0,0,162,100H148.76a1.8,1.8,0,0,0-1.68,1.17l-2.83,7.67a1.79,1.79,0,0,1-1.68,1.18h-.94a1.8,1.8,0,0,1-1.67-2.46l12.79-32.14a1.79,1.79,0,0,1,1.66-1.13h2.07a1.79,1.79,0,0,1,1.66,1.13L171,107.52A1.79,1.79,0,0,1,169.31,110ZM159.2,96.2a1.8,1.8,0,0,0,1.67-2.44L156,81a14.28,14.28,0,0,1-.57-2.39h-.1a13,13,0,0,1-.6,2.39l-4.84,12.79a1.79,1.79,0,0,0,1.68,2.43Z"/><path class="cls-1" d="M186,98.27v9.91a1.8,1.8,0,0,1-1.79,1.8h-.76a1.8,1.8,0,0,1-1.79-1.8V76a1.79,1.79,0,0,1,1.79-1.79h8.39q5.94,0,9.21,2.79a9.78,9.78,0,0,1,3.27,7.87,10.63,10.63,0,0,1-3.63,8.32q-3.63,3.24-9.81,3.24h-3.09A1.8,1.8,0,0,0,186,98.27Zm0-18.44V90.89a1.8,1.8,0,0,0,1.79,1.8h2.76c3,0,5.28-.66,6.86-2a6.9,6.9,0,0,0,2.36-5.6q0-7.06-8.68-7.07h-3.3A1.79,1.79,0,0,0,186,79.83Z"/><path class="cls-1" d="M223.47,76h0a1.8,1.8,0,0,1-1.79,1.8h0a1.8,1.8,0,0,0-1.8,1.79v25a1.81,1.81,0,0,0,1.8,1.8h0a1.79,1.79,0,0,1,1.79,1.79h0a1.8,1.8,0,0,1-1.79,1.8h-8a1.81,1.81,0,0,1-1.8-1.8h0a1.8,1.8,0,0,1,1.8-1.79h0a1.8,1.8,0,0,0,1.79-1.8v-25a1.79,1.79,0,0,0-1.79-1.79h0a1.81,1.81,0,0,1-1.8-1.8h0a1.8,1.8,0,0,1,1.8-1.79h8A1.79,1.79,0,0,1,223.47,76Z"/><path class="cls-1" d="M253.94,78h-7.11A1.79,1.79,0,0,0,245,79.83v28.35a1.8,1.8,0,0,1-1.79,1.8h-.76a1.8,1.8,0,0,1-1.79-1.8V79.83A1.79,1.79,0,0,0,238.91,78h-7.09a1.8,1.8,0,0,1-1.79-1.8V76a1.79,1.79,0,0,1,1.79-1.79h22.12a1.79,1.79,0,0,1,1.8,1.79v.2A1.8,1.8,0,0,1,253.94,78Z"/><path class="cls-1" d="M291.82,110h-.94a1.81,1.81,0,0,1-1.67-1.14l-3-7.74a1.79,1.79,0,0,0-1.67-1.14H271.27a1.8,1.8,0,0,0-1.68,1.17l-2.83,7.67a1.79,1.79,0,0,1-1.68,1.18h-.94a1.8,1.8,0,0,1-1.67-2.46l12.79-32.14a1.79,1.79,0,0,1,1.66-1.13H279a1.79,1.79,0,0,1,1.66,1.13l12.84,32.14A1.8,1.8,0,0,1,291.82,110ZM281.71,96.2a1.8,1.8,0,0,0,1.67-2.44L278.5,81a14.28,14.28,0,0,1-.57-2.39h-.1a13,13,0,0,1-.6,2.39l-4.84,12.79a1.8,1.8,0,0,0,1.68,2.43Z"/><path class="cls-1" d="M321.58,110H306a1.81,1.81,0,0,1-1.8-1.8V76a1.8,1.8,0,0,1,1.8-1.79h.75A1.79,1.79,0,0,1,308.49,76v28.35a1.8,1.8,0,0,0,1.8,1.8h11.29a1.8,1.8,0,0,1,1.8,1.79v.2A1.81,1.81,0,0,1,321.58,110Z"/><path class="cls-2" d="M109.34,25.3h20.9A1.71,1.71,0,0,1,132,27v3.44a1.71,1.71,0,0,1-1.71,1.71H118.13a1.71,1.71,0,0,0-1.71,1.71v5.87a1.71,1.71,0,0,0,1.71,1.7h8.65a1.71,1.71,0,0,1,1.71,1.71v3.44a1.7,1.7,0,0,1-1.71,1.71h-8.65A1.71,1.71,0,0,0,116.42,50v6.43a1.71,1.71,0,0,0,1.71,1.7h12.11A1.71,1.71,0,0,1,132,59.85v3.73a1.7,1.7,0,0,1-1.71,1.71h-20.9a1.71,1.71,0,0,1-1.71-1.71V27A1.72,1.72,0,0,1,109.34,25.3Z"/><path class="cls-2" d="M140.34,25.3h5.94a1.69,1.69,0,0,1,1.55,1l2.79,6.08a1.71,1.71,0,0,0,3.09,0l3-6.15a1.72,1.72,0,0,1,1.54-1h4.53a1.71,1.71,0,0,1,1.51,2.5l-7.73,14.83a1.68,1.68,0,0,0,0,1.53l9.09,18.68a1.7,1.7,0,0,1-1.53,2.45h-5.81a1.71,1.71,0,0,1-1.56-1l-3.91-8.73a1.7,1.7,0,0,0-3.08-.07l-4.46,8.87a1.7,1.7,0,0,1-1.52.94h-4.52a1.7,1.7,0,0,1-1.5-2.51l9.21-17.2A1.71,1.71,0,0,0,147,44l-8.15-16.23A1.71,1.71,0,0,1,140.34,25.3Z"/><path class="cls-2" d="M194.78,50.83l4.75.29a1.71,1.71,0,0,1,1.59,1.94,16.25,16.25,0,0,1-3.94,8.76,12.49,12.49,0,0,1-9.75,4.09q-7.38,0-11.25-5.48t-3.87-15.09q0-9.69,3.84-15.17t11.4-5.48q11.76,0,13.45,13.67a1.72,1.72,0,0,1-1.58,1.92l-4.57.34A1.72,1.72,0,0,1,193,39.07q-.74-7.23-5.45-7.23a4.91,4.91,0,0,0-4.39,2.87q-1.62,2.86-1.62,11.13,0,7.38,1.49,10.15a4.81,4.81,0,0,0,4.49,2.77q4.32,0,5.44-6.5A1.71,1.71,0,0,1,194.78,50.83Z"/><path class="cls-2" d="M213,25.3h5.37A1.71,1.71,0,0,1,220.06,27V39.74a1.71,1.71,0,0,0,1.71,1.7H228a1.7,1.7,0,0,0,1.71-1.7V27a1.71,1.71,0,0,1,1.71-1.71h5.37A1.72,1.72,0,0,1,238.46,27V63.58a1.71,1.71,0,0,1-1.71,1.71h-5.37a1.7,1.7,0,0,1-1.71-1.71V50.65A1.71,1.71,0,0,0,228,48.94h-6.19a1.72,1.72,0,0,0-1.71,1.71V63.58a1.7,1.7,0,0,1-1.71,1.71H213a1.71,1.71,0,0,1-1.71-1.71V27A1.72,1.72,0,0,1,213,25.3Z"/><path class="cls-2" d="M259.15,25.3h6.29a1.71,1.71,0,0,1,1.64,1.24l10.45,36.57a1.71,1.71,0,0,1-1.64,2.18h-5.38a1.7,1.7,0,0,1-1.66-1.3l-1.37-5.65A1.7,1.7,0,0,0,265.82,57h-8.57a1.7,1.7,0,0,0-1.66,1.31L254.25,64a1.7,1.7,0,0,1-1.66,1.31h-4.43a1.71,1.71,0,0,1-1.63-2.2l11-36.57A1.72,1.72,0,0,1,259.15,25.3ZM265,48.06l-1.82-7.41a1.71,1.71,0,0,0-3.32,0l-1.76,7.4a1.71,1.71,0,0,0,1.67,2.1h3.57A1.7,1.7,0,0,0,265,48.06Z"/><path class="cls-2" d="M287.68,25.3h6.9a1.71,1.71,0,0,1,1.58,1.06l6.56,15.85a1.71,1.71,0,0,0,3.29-.66V27a1.71,1.71,0,0,1,1.71-1.71h3.38A1.71,1.71,0,0,1,312.8,27V63.58a1.7,1.7,0,0,1-1.7,1.71h-5a1.72,1.72,0,0,1-1.58-1l-8.46-20.11a1.71,1.71,0,0,0-3.28.66V63.58a1.71,1.71,0,0,1-1.71,1.71h-3.38A1.7,1.7,0,0,1,286,63.58V27A1.71,1.71,0,0,1,287.68,25.3Z"/><path class="cls-2" d="M340.55,44H351a1.71,1.71,0,0,1,1.71,1.71V63.58A1.7,1.7,0,0,1,351,65.29h-.68A1.7,1.7,0,0,1,348.69,64h0a1.71,1.71,0,0,0-2.84-.81,10.93,10.93,0,0,1-7.65,2.72,12.76,12.76,0,0,1-10.82-5.38q-4-5.37-4-14.46,0-9.87,3.94-15.63c2.62-3.83,6.51-5.75,11.64-5.75q11.49,0,13.53,12a1.72,1.72,0,0,1-1.41,2l-4.54.74a1.73,1.73,0,0,1-2-1.41c-.75-4.11-2.57-6.16-5.44-6.16a5.34,5.34,0,0,0-4.73,2.9q-1.79,2.9-1.78,11,0,7.19,1.73,10.11a5.55,5.55,0,0,0,5.07,2.93c3.14,0,4.9-2,5.3-6.11a1.69,1.69,0,0,0-1.7-1.83h-2.48a1.72,1.72,0,0,1-1.71-1.71V45.67A1.72,1.72,0,0,1,340.55,44Z"/><path class="cls-2" d="M366.09,25.3H387A1.71,1.71,0,0,1,388.7,27v3.44a1.71,1.71,0,0,1-1.7,1.71H374.88a1.7,1.7,0,0,0-1.7,1.71v5.87a1.7,1.7,0,0,0,1.7,1.7h8.66a1.72,1.72,0,0,1,1.71,1.71v3.44a1.71,1.71,0,0,1-1.71,1.71h-8.66a1.7,1.7,0,0,0-1.7,1.71v6.43a1.7,1.7,0,0,0,1.7,1.7H387a1.71,1.71,0,0,1,1.7,1.71v3.73a1.7,1.7,0,0,1-1.7,1.71H366.09a1.7,1.7,0,0,1-1.7-1.71V27A1.71,1.71,0,0,1,366.09,25.3Z"/><path class="cls-3" d="M92.24,45.22a46.35,46.35,0,0,1-5.17,23.29l-.84,1.55,0,.06L48.42,139.66a2,2,0,0,1-3.56,0Q32.47,116.86,20.07,94.09C12.17,79.5,1,64.38,1,47.1,1,20.94,22.57-.13,48.73,1.05,72.25,2.11,91.3,21.45,92.24,45.22Z"/><path class="cls-4" d="M43.87,69.71V64.15c-4.73-.06-9.63-1.05-12.48-2.43l2-3.69A29.64,29.64,0,0,0,45.09,60.4c5.79,0,9.71-2.26,9.71-5.4s-3.19-4.9-9.22-6.56c-8.32-2.2-13.46-4.73-13.46-9.53,0-4.57,4.81-8,12.32-8.87h0V24.48H49.5v5.34h0a30,30,0,0,1,10.6,1.93l-2,3.64a27.07,27.07,0,0,0-10.28-1.88c-6.28,0-8.64,2.54-8.64,4.74,0,2.87,3,4.3,10.11,6.28,8.4,2.32,12.64,5.18,12.64,10.09C61.89,59,57.41,63,49,64h0v5.73Z"/></g></g></svg>