<svg xmlns="http://www.w3.org/2000/svg" viewBox="0 0 73 73"><defs><style>.cls-1{fill:#fbceac;stroke:#fbceac;}.cls-1,.cls-2,.cls-3,.cls-4,.cls-5{stroke-miterlimit:10;}.cls-2{fill:#ca9e67;stroke:#ca9e67;}.cls-3{fill:#3a94d1;stroke:#3a94d1;}.cls-4{fill:#1d71b8;stroke:#1d71b8;}.cls-5,.cls-6{fill:none;stroke:#36a9e1;stroke-linecap:round;}.cls-6{stroke-linejoin:round;}</style></defs><g id="Capa_2" data-name="Capa 2"><g id="Capa_1-2" data-name="Capa 1"><circle class="cls-1" cx="36.5" cy="36.5" r="36"/><path class="cls-2" d="M55.94,44.67a6.15,6.15,0,0,1-2.73-5.11.38.38,0,0,1,0-.15c6,10.13,14.24-1.88,14.58-2.36a11.21,11.21,0,0,1-1.44,3.56C63.78,44.8,59.11,46.62,55.94,44.67Z"/><path class="cls-2" d="M56.55,54.79A6.85,6.85,0,0,1,55,59.23a9.31,9.31,0,0,1-7.06,3.11,10,10,0,0,1-4.06-.86c-1.53-.7-2.52-2-4.06-2.68a4.7,4.7,0,0,0-4.75.47,16.19,16.19,0,0,1-3,2.17,9.77,9.77,0,0,1-10.91-1.87c3.76,1,4.17,1.6,11.05-1a15.41,15.41,0,0,1,6.17-1.19c1.86.09,3.73,1.27,5.53,1.78a21,21,0,0,0,3.13.66,8.58,8.58,0,0,0,4.38-.39c2.17-.92,3-3.16,3.06-5.37A21.66,21.66,0,0,0,53.33,47a35.19,35.19,0,0,0-1.26-3.48,20.56,20.56,0,0,1,1.12,1.76C54.72,47.93,56.58,51.49,56.55,54.79Z"/><path class="cls-3" d="M40.28,57.14s-2.48-2.43-9.36.18-7.29,2-11,1a6.9,6.9,0,0,1-1.69-2.63c-1.21-3.62.93-7.27,2.64-10.49a24.73,24.73,0,0,1,6.74-8.32,18.44,18.44,0,0,1,6.72-3.21,12.21,12.21,0,0,1,2.18-.33l.51,0c5.83.32,10.81,4.53,13.79,8.81l0,.06C51.35,43.54,60.13,64.42,40.28,57.14Z"/><path class="cls-2" d="M45.89,31.75a6.21,6.21,0,0,1-4.68-3.43l-.06-.13c9.84,6.5,12-7.87,12.12-8.45a11,11,0,0,1,.25,3.83C53,28.46,49.6,32.13,45.89,31.75Z"/><path class="cls-4" d="M55.27,53.55A6.85,6.85,0,0,1,53.68,58a9.31,9.31,0,0,1-7.06,3.11,10,10,0,0,1-4.06-.86c-1.53-.7-2.52-2-4.06-2.68a4.7,4.7,0,0,0-4.75.47,16.19,16.19,0,0,1-3,2.17,9.77,9.77,0,0,1-10.91-1.87c3.76,1,4.17,1.6,11.05-1a15.43,15.43,0,0,1,6.18-1.19c1.85.09,3.72,1.27,5.53,1.78a20.6,20.6,0,0,0,3.12.66,8.47,8.47,0,0,0,4.38-.39c2.17-.92,3-3.16,3.06-5.37a21.4,21.4,0,0,0-1.14-7.09,32.81,32.81,0,0,0-1.26-3.48A20.56,20.56,0,0,1,51.91,44C53.44,46.69,55.3,50.25,55.27,53.55Z"/><ellipse class="cls-3" cx="27.05" cy="20.75" rx="6.75" ry="8.91" transform="translate(-3.17 4.97) rotate(-9.92)"/><ellipse class="cls-3" cx="46.21" cy="20.75" rx="8.91" ry="6.75" transform="translate(13.13 59.12) rotate(-73.42)"/><path class="cls-2" d="M16.4,43.92a6.19,6.19,0,0,1-5.77-.59l-.12-.08c11.78.63,6.39-12.87,6.17-13.42A11,11,0,0,1,18.84,33C20.88,37.48,19.79,42.37,16.4,43.92Z"/><path class="cls-3" d="M9.57,42.32a10.73,10.73,0,0,1-3.94-4.63c-2-4.48-1-9.36,2.44-10.91a5.69,5.69,0,0,1,4.1-.17,7.68,7.68,0,0,1,2.09,1,3.8,3.8,0,0,1,1.67,1.74c.09.25.18.5.26.75a22.3,22.3,0,0,1,.6,2.27,12.47,12.47,0,0,1,.09,5.73,5.47,5.47,0,0,1-4.2,4A13.46,13.46,0,0,1,9.57,42.32Z"/><path class="cls-4" d="M15.47,43A6.19,6.19,0,0,1,9.7,42.4l-.12-.08C21.36,43,16,29.45,15.75,28.9a11,11,0,0,1,2.16,3.18C20,36.55,18.86,41.44,15.47,43Z"/><path class="cls-2" d="M31.26,30.88a6.2,6.2,0,0,1-5.66-1.26l-.11-.1c11.63,2,7.85-12,7.69-12.6A10.73,10.73,0,0,1,35,20.33C36.46,25,34.81,29.73,31.26,30.88Z"/><ellipse class="cls-3" cx="60.85" cy="34.88" rx="8.91" ry="6.75" transform="translate(-2.96 64.01) rotate(-54.36)"/><path class="cls-4" d="M29.62,29.65A6.16,6.16,0,0,1,24,28.1l-.11-.1c11.51,2.61,8.47-11.61,8.35-12.19a11.08,11.08,0,0,1,1.59,3.5C35.12,24.06,33.22,28.7,29.62,29.65Z"/><path class="cls-4" d="M43.45,29.48a6.18,6.18,0,0,1-3.89-4.29.74.74,0,0,1,0-.14c8.34,8.34,13.36-5.3,13.57-5.85A11.12,11.12,0,0,1,52.57,23C51.09,27.69,47,30.6,43.45,29.48Z"/><path class="cls-4" d="M56.21,42.36a6.15,6.15,0,0,1-2.66-5.15.33.33,0,0,1,0-.14c5.92,10.2,14.27-1.7,14.61-2.19a11.09,11.09,0,0,1-1.48,3.55C64.05,42.59,59.36,44.35,56.21,42.36Z"/><path class="cls-5" d="M34.07,35.11S27,38,23.72,43.48"/><path class="cls-6" d="M22.06,45.59l-1,1.71-.93,1.57"/><path class="cls-6" d="M8.6,27.41s-2.51,1.15-3,3.4"/><path class="cls-6" d="M24.48,13.06s-2.51,1.15-3,3.4"/><path class="cls-6" d="M43.5,14.12S41.22,15.69,41.15,18"/><path class="cls-6" d="M61.32,27.76s-2.74.38-3.83,2.41"/></g></g></svg>